<svg width="300" height="300" viewBox="0 0 300 300" fill="none" xmlns="http://www.w3.org/2000/svg">
<circle cx="150" cy="150" r="150" fill="#FFF389"/>
<path d="M157 33C157 30.2386 159.24 27.9881 161.998 28.1136C179.564 28.9125 196.708 33.9128 211.98 42.7257C227.252 51.5385 240.16 63.8805 249.64 78.6892C251.129 81.0148 250.302 84.0802 247.911 85.4619L164.254 133.808C162.878 134.603 161.126 134.031 159.749 133.236C158.372 132.442 157 131.211 157 129.621V33Z" fill="#FBE842"/>
<path d="M52.0673 85.5C49.6759 84.1193 48.8469 81.0542 50.3348 78.728C59.8094 63.9153 72.7121 51.568 87.9801 42.7487C103.248 33.9295 120.39 28.922 137.956 28.1157C140.714 27.9891 142.955 30.2386 142.956 33L142.996 129.621C142.997 131.211 141.626 132.442 140.249 133.237C138.872 134.033 137.121 134.606 135.744 133.811L52.0673 85.5Z" fill="#FBE842"/>
<path d="M45.0673 202.5C42.6759 203.881 39.607 203.066 38.3363 200.614C30.2455 185.003 26.0037 167.655 26 150.023C25.9963 132.391 30.2309 115.041 38.3152 99.4265C39.5848 96.9743 42.6533 96.1584 45.0454 97.5381L128.742 145.814C130.119 146.608 130.5 148.411 130.5 150.001C130.5 151.591 130.121 153.394 128.744 154.189L45.0673 202.5Z" fill="#FBE842"/>
<path d="M143 267C143 269.761 140.76 272.012 138.002 271.886C120.436 271.087 103.292 266.087 88.0199 257.274C72.7482 248.461 59.8405 236.119 50.3597 221.311C48.8707 218.985 49.6984 215.92 52.0893 214.538L135.746 166.192C137.122 165.397 138.874 165.969 140.251 166.764C141.628 167.558 143 168.789 143 170.379L143 267Z" fill="#FBE842"/>
<path d="M247.933 214.5C250.324 215.881 251.153 218.946 249.665 221.272C240.191 236.085 227.288 248.432 212.02 257.251C196.752 266.071 179.61 271.078 162.044 271.884C159.286 272.011 157.045 269.761 157.044 267L157.004 170.379C157.003 168.789 158.374 167.558 159.751 166.763C161.128 165.967 162.879 165.394 164.256 166.189L247.933 214.5Z" fill="#FBE842"/>
<path d="M254.933 97.5C257.324 96.1193 260.393 96.9339 261.664 99.3856C269.754 114.997 273.996 132.345 274 149.977C274.004 167.609 269.769 184.959 261.685 200.574C260.415 203.026 257.347 203.842 254.955 202.462L171.258 154.186C169.881 153.392 169.5 151.589 169.5 149.999C169.5 148.409 169.879 146.606 171.256 145.811L254.933 97.5Z" fill="#FBE842"/>
</svg>
