<svg width="329" height="328" viewBox="0 0 329 328" fill="none" xmlns="http://www.w3.org/2000/svg">
<circle cx="164" cy="165" r="150" fill="#FFF389"/>
<path d="M269.195 111.763C271.587 110.382 274.656 111.197 275.926 113.648C283.985 129.198 288.226 146.471 288.263 164.032C288.299 181.594 284.131 198.885 276.138 214.468C274.877 216.925 271.812 217.752 269.415 216.381L185.817 168.582C182.468 166.667 182.458 161.841 185.799 159.912L269.195 111.763Z" fill="#FBE842"/>
<path d="M59.3299 216.763C56.9385 218.143 53.8696 217.329 52.599 214.877C44.5403 199.327 40.2996 182.055 40.2628 164.493C40.2261 146.931 44.3943 129.641 52.3878 114.058C53.6482 111.601 56.7136 110.773 59.1108 112.144L142.708 159.943C146.057 161.858 146.068 166.685 142.726 168.614L59.3299 216.763Z" fill="#FBE842"/>
<path d="M263.195 229.763C265.587 231.144 266.416 234.209 264.928 236.535C255.491 251.289 242.653 263.597 227.462 272.41C212.272 281.223 195.214 286.258 177.722 287.127C174.963 287.264 172.714 285.023 172.703 282.262L172.299 185.965C172.283 182.107 176.458 179.685 179.799 181.614L263.195 229.763Z" fill="#FBE842"/>
<path d="M65.3299 97.7626C62.9385 96.3819 62.1095 93.3169 63.5974 90.9906C73.0344 76.2368 85.8727 63.9279 101.063 55.1152C116.254 46.3025 133.312 41.2671 150.804 40.3981C153.562 40.2611 155.811 42.5021 155.823 45.2635L156.226 141.56C156.242 145.419 152.068 147.841 148.726 145.911L65.3299 97.7626Z" fill="#FBE842"/>
<path d="M172 45C172 42.2386 174.24 39.9881 176.998 40.1136C194.494 40.9093 211.573 45.8732 226.8 54.6222C242.028 63.3713 254.917 75.6263 264.416 90.3404C265.914 92.6604 265.098 95.7289 262.712 97.1196L179.518 145.617C176.185 147.56 172 145.156 172 141.298L172 45Z" fill="#FBE842"/>
<path d="M159 282C159 284.761 156.76 287.012 154.002 286.886C136.506 286.091 119.427 281.127 104.2 272.378C88.9723 263.629 76.0826 251.374 66.5839 236.66C65.0862 234.34 65.9024 231.271 68.288 229.88L151.482 181.383C154.815 179.44 159 181.844 159 185.702V282Z" fill="#FBE842"/>
</svg>
