<svg width="300" height="300" viewBox="0 0 300 300" fill="none" xmlns="http://www.w3.org/2000/svg">
<path d="M300 150C300 232.843 232.843 300 150 300C67.1573 300 0 232.843 0 150C0 67.1573 67.1573 0 150 0C232.843 0 300 67.1573 300 150ZM15 150C15 224.558 75.4416 285 150 285C224.558 285 285 224.558 285 150C285 75.4416 224.558 15 150 15C75.4416 15 15 75.4416 15 150Z" fill="#C1A8B4"/>
<path d="M275 150C275 219.036 219.036 275 150 275C80.9644 275 25 219.036 25 150C25 80.9644 80.9644 25 150 25C219.036 25 275 80.9644 275 150ZM37.5 150C37.5 212.132 87.868 262.5 150 262.5C212.132 262.5 262.5 212.132 262.5 150C262.5 87.868 212.132 37.5 150 37.5C87.868 37.5 37.5 87.868 37.5 150Z" fill="#C1A8B4"/>
<path d="M250 150C250 205.228 205.228 250 150 250C94.7715 250 50 205.228 50 150C50 94.7715 94.7715 50 150 50C205.228 50 250 94.7715 250 150ZM60 150C60 199.706 100.294 240 150 240C199.706 240 240 199.706 240 150C240 100.294 199.706 60 150 60C100.294 60 60 100.294 60 150Z" fill="#C1A8B4"/>
<path d="M225 150C225 191.421 191.421 225 150 225C108.579 225 75 191.421 75 150C75 108.579 108.579 75 150 75C191.421 75 225 108.579 225 150ZM82.5 150C82.5 187.279 112.721 217.5 150 217.5C187.279 217.5 217.5 187.279 217.5 150C217.5 112.721 187.279 82.5 150 82.5C112.721 82.5 82.5 112.721 82.5 150Z" fill="#C1A8B4"/>
<path d="M200 150C200 177.614 177.614 200 150 200C122.386 200 100 177.614 100 150C100 122.386 122.386 100 150 100C177.614 100 200 122.386 200 150ZM105 150C105 174.853 125.147 195 150 195C174.853 195 195 174.853 195 150C195 125.147 174.853 105 150 105C125.147 105 105 125.147 105 150Z" fill="#C1A8B4"/>
<path d="M198 146.5C198 147.881 196.88 149.007 195.501 148.938C183.335 148.329 171.776 143.295 163.03 134.736C154.283 126.177 149 114.729 148.128 102.58C148.029 101.203 149.131 100.058 150.511 100.029V100.029C151.892 99.9987 153.028 101.095 153.134 102.471C153.972 113.313 158.714 123.518 166.527 131.162C174.339 138.807 184.644 143.327 195.501 143.931C196.88 144.007 198 145.119 198 146.5V146.5Z" fill="#C1A8B4"/>
</svg>
