<svg width="300" height="300" viewBox="0 0 300 300" fill="none" xmlns="http://www.w3.org/2000/svg">
<circle cx="150" cy="150" r="150" fill="#A9C77E"/>
<path d="M148.518 99.4595C148.783 97.7691 151.217 97.7691 151.482 99.4595L155.408 124.519C155.609 125.805 157.24 126.242 158.057 125.229L173.987 105.49C175.061 104.158 177.17 105.375 176.554 106.972L167.424 130.637C166.955 131.851 168.149 133.045 169.363 132.576L193.028 123.446C194.625 122.83 195.842 124.939 194.51 126.013L174.771 141.943C173.758 142.76 174.195 144.391 175.481 144.592L200.54 148.518C202.231 148.783 202.231 151.217 200.54 151.482L175.481 155.408C174.195 155.609 173.758 157.24 174.771 158.057L194.51 173.987C195.842 175.061 194.625 177.17 193.028 176.554L169.363 167.424C168.149 166.955 166.955 168.149 167.424 169.363L176.554 193.028C177.17 194.625 175.061 195.842 173.987 194.51L158.057 174.771C157.24 173.758 155.609 174.195 155.408 175.481L151.482 200.54C151.217 202.231 148.783 202.231 148.518 200.54L144.592 175.481C144.391 174.195 142.76 173.758 141.943 174.771L126.013 194.51C124.939 195.842 122.83 194.625 123.446 193.028L132.576 169.363C133.045 168.149 131.851 166.955 130.637 167.424L106.972 176.554C105.375 177.17 104.158 175.061 105.49 173.987L125.229 158.057C126.242 157.24 125.805 155.609 124.519 155.408L99.4595 151.482C97.7691 151.217 97.7691 148.783 99.4595 148.518L124.519 144.592C125.805 144.391 126.242 142.76 125.229 141.943L105.49 126.013C104.158 124.939 105.375 122.83 106.972 123.446L130.637 132.576C131.851 133.045 133.045 131.851 132.576 130.637L123.446 106.972C122.83 105.375 124.939 104.158 126.013 105.49L141.943 125.229C142.76 126.242 144.391 125.805 144.592 124.519L148.518 99.4595Z" fill="#F2ECAE"/>
<ellipse cx="139.451" cy="111.572" rx="3" ry="6" transform="rotate(-15 139.451 111.572)" fill="#717171"/>
<ellipse cx="121.364" cy="122.364" rx="3" ry="6" transform="rotate(-45 121.364 122.364)" fill="#717171"/>
<ellipse cx="111.364" cy="139.364" rx="3" ry="6" transform="rotate(-75 111.364 139.364)" fill="#717171"/>
<ellipse cx="111.572" cy="160.452" rx="3" ry="6" transform="rotate(-105 111.572 160.452)" fill="#717171"/>
<ellipse cx="121.364" cy="179.365" rx="3" ry="6" transform="rotate(-135 121.364 179.365)" fill="#717171"/>
<ellipse cx="139.451" cy="190.573" rx="3" ry="6" transform="rotate(-165 139.451 190.573)" fill="#717171"/>
<ellipse rx="3" ry="6" transform="matrix(-0.965926 -0.258819 -0.258819 0.965926 160.451 111.572)" fill="#717171"/>
<ellipse rx="3" ry="6" transform="matrix(-0.707107 -0.707107 -0.707107 0.707107 178.537 122.364)" fill="#717171"/>
<ellipse rx="3" ry="6" transform="matrix(-0.258819 -0.965926 -0.965926 0.258819 188.537 139.364)" fill="#717171"/>
<ellipse rx="3" ry="6" transform="matrix(0.258819 -0.965926 -0.965926 -0.258819 188.572 160.452)" fill="#717171"/>
<ellipse rx="3" ry="6" transform="matrix(0.707107 -0.707107 -0.707107 -0.707107 179.364 179.365)" fill="#717171"/>
<ellipse rx="3" ry="6" transform="matrix(0.965926 -0.258819 -0.258819 -0.965926 160.451 190.573)" fill="#717171"/>
</svg>
