<svg width="300" height="300" viewBox="0 0 300 300" fill="none" xmlns="http://www.w3.org/2000/svg">
<circle cx="150" cy="150" r="150" fill="#FFD074"/>
<path d="M160.18 38.845C160.806 31.6926 167.133 26.3334 174.182 27.6982C191.438 31.0395 207.799 37.9843 222.189 48.0761C228.068 52.1984 228.608 60.4728 223.898 65.8914L177.362 119.425C173.804 123.517 167.62 123.772 162.629 121.653V121.653C157.638 119.535 153.526 114.909 153.998 109.508L160.18 38.845Z" fill="#FFB422"/>
<path d="M236.216 78.4266C241.716 73.8116 249.98 74.4961 253.999 80.4455C263.838 95.0099 270.496 111.489 273.536 128.801C274.777 135.873 269.308 142.105 262.146 142.606L191.386 147.554C185.977 147.932 181.425 143.74 179.393 138.712V138.712C177.362 133.685 177.725 127.506 181.878 124.021L236.216 78.4266Z" fill="#FFB422"/>
<path d="M261.993 160.18C269.145 160.806 274.504 167.133 273.14 174.182C269.798 191.438 262.853 207.799 252.762 222.189C248.639 228.068 240.365 228.608 234.946 223.897L181.413 177.361C177.321 173.804 177.066 167.62 179.185 162.629V162.629C181.303 157.638 185.929 153.526 191.33 153.998L261.993 160.18Z" fill="#FFB422"/>
<path d="M222.411 236.216C227.026 241.716 226.342 249.979 220.392 253.999C205.828 263.838 189.348 270.496 172.037 273.535C164.965 274.777 158.732 269.308 158.232 262.146L153.284 191.386C152.905 185.977 157.098 181.424 162.125 179.393V179.393C167.153 177.362 173.331 177.725 176.817 181.878L222.411 236.216Z" fill="#FFB422"/>
<path d="M140.657 261.993C140.032 269.145 133.704 274.504 126.656 273.139C109.4 269.798 93.0389 262.853 78.6485 252.762C72.7702 248.639 72.23 240.365 76.9403 234.946L123.476 181.413C127.033 177.321 133.218 177.066 138.209 179.185V179.185C143.2 181.303 147.312 185.929 146.84 191.33L140.657 261.993Z" fill="#FFB422"/>
<path d="M64.622 222.411C59.122 227.026 50.8584 226.342 46.8392 220.392C37.0001 205.828 30.3419 189.348 27.3023 172.037C26.0607 164.965 31.5295 158.732 38.6918 158.232L109.452 153.284C114.86 152.905 119.413 157.098 121.444 162.125V162.125C123.476 167.152 123.113 173.331 118.96 176.816L64.622 222.411Z" fill="#FFB422"/>
<path d="M38.8451 140.657C31.6927 140.032 26.3335 133.704 27.6984 126.656C31.0396 109.4 37.9844 93.0388 48.0762 78.6483C52.1986 72.77 60.4729 72.2299 65.8915 76.9402L119.425 123.476C123.517 127.033 123.772 133.218 121.653 138.208V138.208C119.535 143.199 114.909 147.312 109.508 146.84L38.8451 140.657Z" fill="#FFB422"/>
<path d="M78.4267 64.6218C73.8117 59.1218 74.4962 50.8582 80.4456 46.8391C95.01 36.9999 111.49 30.3418 128.801 27.3022C135.873 26.0606 142.105 31.5294 142.606 38.6916L147.554 109.452C147.932 114.86 143.74 119.413 138.712 121.444V121.444C133.685 123.475 127.507 123.113 124.021 118.959L78.4267 64.6218Z" fill="#FFB422"/>
</svg>
