<svg width="300" height="301" viewBox="0 0 300 301" fill="none" xmlns="http://www.w3.org/2000/svg">
<circle cx="150" cy="150.525" r="150" fill="#FF7575"/>
<path d="M156 50.5254C156 57.1528 153.761 62.5254 151 62.5254C148.239 62.5254 146 57.1528 146 50.5254C146 43.898 148.239 38.5254 151 38.5254C153.761 38.5254 156 43.898 156 50.5254Z" fill="black"/>
<path d="M156 250.525C156 257.153 153.761 262.525 151 262.525C148.239 262.525 146 257.153 146 250.525C146 243.898 148.239 238.525 151 238.525C153.761 238.525 156 243.898 156 250.525Z" fill="black"/>
<path d="M81.5563 76.0109C86.2426 80.6972 88.4587 86.0791 86.5061 88.0317C84.5535 89.9843 79.1716 87.7683 74.4853 83.082C69.799 78.3957 67.5829 73.0138 69.5355 71.0611C71.4882 69.1085 76.8701 71.3246 81.5563 76.0109Z" fill="black"/>
<path d="M50 143.525C56.6274 143.525 62 145.764 62 148.525C62 151.287 56.6274 153.525 50 153.525C43.3726 153.525 38 151.287 38 148.525C38 145.764 43.3726 143.525 50 143.525Z" fill="black"/>
<path d="M74.4855 218.011C79.1718 213.325 84.5537 211.109 86.5063 213.061C88.4589 215.014 86.2429 220.396 81.5566 225.082C76.8703 229.768 71.4884 231.984 69.5358 230.032C67.5831 228.079 69.7992 222.697 74.4855 218.011Z" fill="black"/>
<path d="M218.486 76.011C223.172 71.3247 228.554 69.1087 230.506 71.0613C232.459 73.0139 230.243 78.3958 225.557 83.0821C220.87 87.7684 215.488 89.9845 213.536 88.0318C211.583 86.0792 213.799 80.6973 218.486 76.011Z" fill="black"/>
<path d="M250 143.525C256.627 143.525 262 145.764 262 148.525C262 151.287 256.627 153.525 250 153.525C243.373 153.525 238 151.287 238 148.525C238 145.764 243.373 143.525 250 143.525Z" fill="black"/>
<path d="M225.556 218.011C230.243 222.697 232.459 228.079 230.506 230.032C228.553 231.984 223.172 229.768 218.485 225.082C213.799 220.396 211.583 215.014 213.536 213.061C215.488 211.109 220.87 213.325 225.556 218.011Z" fill="black"/>
</svg>
