<?xml version="1.0" encoding="utf-8"?>
<!-- Generator: Adobe Illustrator 24.2.1, SVG Export Plug-In . SVG Version: 6.00 Build 0)  -->
<svg version="1.1" id="Capa_1" xmlns="http://www.w3.org/2000/svg" xmlns:xlink="http://www.w3.org/1999/xlink" x="0px" y="0px"
	 viewBox="0 0 475.1 475.1" style="enable-background:new 0 0 475.1 475.1;" xml:space="preserve">
<g>
	<path d="M139.3,159.1c-5,0-9.2,1.8-12.8,5.4c-3.6,3.6-5.4,7.9-5.4,12.8V287c0,4.9,1.8,9.2,5.4,12.8c3.6,3.6,7.9,5.4,12.8,5.4h74.8
		l95.1,95.1c3.6,3.6,7.9,5.4,12.8,5.4c5,0,9.2-1.8,12.9-5.4c3.6-3.6,5.4-7.9,5.4-12.8v-40.6L152.5,159.1H139.3z"/>
	<path d="M340.3,76.9c0-4.9-1.8-9.2-5.4-12.9c-3.6-3.6-7.9-5.4-12.8-5.4c-4.9,0-9.2,1.8-12.8,5.4l-95.1,95.1h-11.3l137.5,137.5V76.9
		z"/>
	<path d="M124.4,80.7c-6.9-6.9-18.2-6.9-25.1,0l0,0c-6.9,6.9-6.9,18.2,0,25.1l53.2,53.2h50.3L124.4,80.7z"/>
	<path d="M419.1,375.4l-78.8-78.8v50.3l53.7,53.7c6.9,6.9,18.2,6.9,25.1,0h0C426,393.6,426,382.4,419.1,375.4z"/>
</g>
</svg>
