<svg width="300" height="301" viewBox="0 0 300 301" fill="none" xmlns="http://www.w3.org/2000/svg">
<circle cx="150" cy="150.525" r="150" fill="#FFA4A9"/>
<ellipse cx="102.758" cy="75.8301" rx="13" ry="5" transform="rotate(30 102.758 75.8301)" fill="#FFC7C7"/>
<ellipse cx="74.8508" cy="124.72" rx="13" ry="5" transform="rotate(10 74.8508 124.72)" fill="#FFC7C7"/>
<ellipse cx="74.6707" cy="178.181" rx="13" ry="5" transform="rotate(-10 74.6707 178.181)" fill="#FFC7C7"/>
<ellipse cx="102.758" cy="224.83" rx="13" ry="5" transform="rotate(-30 102.758 224.83)" fill="#FFC7C7"/>
<ellipse cx="198.758" cy="75.8301" rx="13" ry="5" transform="rotate(-30 198.758 75.8301)" fill="#FFC7C7"/>
<ellipse cx="224.671" cy="125.181" rx="13" ry="5" transform="rotate(-10 224.671 125.181)" fill="#FFC7C7"/>
<ellipse cx="224.671" cy="178.181" rx="13" ry="5" transform="rotate(10 224.671 178.181)" fill="#FFC7C7"/>
<ellipse cx="198.758" cy="224.83" rx="13" ry="5" transform="rotate(30 198.758 224.83)" fill="#FFC7C7"/>
</svg>
